<?xml version="1.0" encoding="utf-8" standalone="no"?>
<!DOCTYPE svg PUBLIC "-//W3C//DTD SVG 1.1//EN"
  "http://www.w3.org/Graphics/SVG/1.1/DTD/svg11.dtd">
<svg xmlns:xlink="http://www.w3.org/1999/xlink" width="576pt" height="288pt" viewBox="0 0 576 288" xmlns="http://www.w3.org/2000/svg" version="1.1">
 <metadata>
  <rdf:RDF xmlns:dc="http://purl.org/dc/elements/1.1/" xmlns:cc="http://creativecommons.org/ns#" xmlns:rdf="http://www.w3.org/1999/02/22-rdf-syntax-ns#">
   <cc:Work>
    <dc:type rdf:resource="http://purl.org/dc/dcmitype/StillImage"/>
    <dc:date>2025-04-18T20:42:03.249697</dc:date>
    <dc:format>image/svg+xml</dc:format>
    <dc:creator>
     <cc:Agent>
      <dc:title>Matplotlib v3.10.1, https://matplotlib.org/</dc:title>
     </cc:Agent>
    </dc:creator>
   </cc:Work>
  </rdf:RDF>
 </metadata>
 <defs>
  <style type="text/css">*{stroke-linejoin: round; stroke-linecap: butt}</style>
 </defs>
 <g id="figure_1">
  <g id="patch_1">
   <path d="M 0 288 
L 576 288 
L 576 0 
L 0 0 
z
" style="fill: #ffffff"/>
  </g>
  <g id="axes_1">
   <g id="patch_2">
    <path d="M 45.83 235.182568 
L 565.2 235.182568 
L 565.2 10.8 
L 45.83 10.8 
z
" style="fill: #ffffff"/>
   </g>
   <g id="matplotlib.axis_1">
    <g id="xtick_1">
     <g id="line2d_1">
      <path d="M 79.701957 235.182568 
L 79.701957 10.8 
" clip-path="url(#pa1712abb30)" style="fill: none; stroke: #b0b0b0; stroke-width: 0.8; stroke-linecap: square"/>
     </g>
     <g id="line2d_2">
      <defs>
       <path id="mbbc2c244ae" d="M 0 0 
L 0 3.5 
" style="stroke: #000000; stroke-width: 0.8"/>
      </defs>
      <g>
       <use xlink:href="#mbbc2c244ae" x="79.701957" y="235.182568" style="stroke: #000000; stroke-width: 0.8"/>
      </g>
     </g>
     <g id="text_1">
      <!-- 0.00 -->
      <g transform="translate(74.649458 261.004867) rotate(-45) scale(0.1 -0.1)">
       <defs>
        <path id="ArialMT-30" d="M 266 2259 
Q 266 3072 433 3567 
Q 600 4063 929 4331 
Q 1259 4600 1759 4600 
Q 2128 4600 2406 4451 
Q 2684 4303 2865 4023 
Q 3047 3744 3150 3342 
Q 3253 2941 3253 2259 
Q 3253 1453 3087 958 
Q 2922 463 2592 192 
Q 2263 -78 1759 -78 
Q 1097 -78 719 397 
Q 266 969 266 2259 
z
M 844 2259 
Q 844 1131 1108 757 
Q 1372 384 1759 384 
Q 2147 384 2411 759 
Q 2675 1134 2675 2259 
Q 2675 3391 2411 3762 
Q 2147 4134 1753 4134 
Q 1366 4134 1134 3806 
Q 844 3388 844 2259 
z
" transform="scale(0.015625)"/>
        <path id="ArialMT-2e" d="M 581 0 
L 581 641 
L 1222 641 
L 1222 0 
L 581 0 
z
" transform="scale(0.015625)"/>
       </defs>
       <use xlink:href="#ArialMT-30"/>
       <use xlink:href="#ArialMT-2e" transform="translate(55.615234 0)"/>
       <use xlink:href="#ArialMT-30" transform="translate(83.398438 0)"/>
       <use xlink:href="#ArialMT-30" transform="translate(139.013672 0)"/>
      </g>
     </g>
    </g>
    <g id="xtick_2">
     <g id="line2d_3">
      <path d="M 124.864565 235.182568 
L 124.864565 10.8 
" clip-path="url(#pa1712abb30)" style="fill: none; stroke: #b0b0b0; stroke-width: 0.8; stroke-linecap: square"/>
     </g>
     <g id="line2d_4">
      <g>
       <use xlink:href="#mbbc2c244ae" x="124.864565" y="235.182568" style="stroke: #000000; stroke-width: 0.8"/>
      </g>
     </g>
     <g id="text_2">
      <!-- 0.01 -->
      <g transform="translate(119.812066 261.004867) rotate(-45) scale(0.1 -0.1)">
       <defs>
        <path id="ArialMT-31" d="M 2384 0 
L 1822 0 
L 1822 3584 
Q 1619 3391 1289 3197 
Q 959 3003 697 2906 
L 697 3450 
Q 1169 3672 1522 3987 
Q 1875 4303 2022 4600 
L 2384 4600 
L 2384 0 
z
" transform="scale(0.015625)"/>
       </defs>
       <use xlink:href="#ArialMT-30"/>
       <use xlink:href="#ArialMT-2e" transform="translate(55.615234 0)"/>
       <use xlink:href="#ArialMT-30" transform="translate(83.398438 0)"/>
       <use xlink:href="#ArialMT-31" transform="translate(139.013672 0)"/>
      </g>
     </g>
    </g>
    <g id="xtick_3">
     <g id="line2d_5">
      <path d="M 170.027174 235.182568 
L 170.027174 10.8 
" clip-path="url(#pa1712abb30)" style="fill: none; stroke: #b0b0b0; stroke-width: 0.8; stroke-linecap: square"/>
     </g>
     <g id="line2d_6">
      <g>
       <use xlink:href="#mbbc2c244ae" x="170.027174" y="235.182568" style="stroke: #000000; stroke-width: 0.8"/>
      </g>
     </g>
     <g id="text_3">
      <!-- 0.02 -->
      <g transform="translate(164.974675 261.004867) rotate(-45) scale(0.1 -0.1)">
       <defs>
        <path id="ArialMT-32" d="M 3222 541 
L 3222 0 
L 194 0 
Q 188 203 259 391 
Q 375 700 629 1000 
Q 884 1300 1366 1694 
Q 2113 2306 2375 2664 
Q 2638 3022 2638 3341 
Q 2638 3675 2398 3904 
Q 2159 4134 1775 4134 
Q 1369 4134 1125 3890 
Q 881 3647 878 3216 
L 300 3275 
Q 359 3922 746 4261 
Q 1134 4600 1788 4600 
Q 2447 4600 2831 4234 
Q 3216 3869 3216 3328 
Q 3216 3053 3103 2787 
Q 2991 2522 2730 2228 
Q 2469 1934 1863 1422 
Q 1356 997 1212 845 
Q 1069 694 975 541 
L 3222 541 
z
" transform="scale(0.015625)"/>
       </defs>
       <use xlink:href="#ArialMT-30"/>
       <use xlink:href="#ArialMT-2e" transform="translate(55.615234 0)"/>
       <use xlink:href="#ArialMT-30" transform="translate(83.398438 0)"/>
       <use xlink:href="#ArialMT-32" transform="translate(139.013672 0)"/>
      </g>
     </g>
    </g>
    <g id="xtick_4">
     <g id="line2d_7">
      <path d="M 215.189783 235.182568 
L 215.189783 10.8 
" clip-path="url(#pa1712abb30)" style="fill: none; stroke: #b0b0b0; stroke-width: 0.8; stroke-linecap: square"/>
     </g>
     <g id="line2d_8">
      <g>
       <use xlink:href="#mbbc2c244ae" x="215.189783" y="235.182568" style="stroke: #000000; stroke-width: 0.8"/>
      </g>
     </g>
     <g id="text_4">
      <!-- 0.03 -->
      <g transform="translate(210.137284 261.004867) rotate(-45) scale(0.1 -0.1)">
       <defs>
        <path id="ArialMT-33" d="M 269 1209 
L 831 1284 
Q 928 806 1161 595 
Q 1394 384 1728 384 
Q 2125 384 2398 659 
Q 2672 934 2672 1341 
Q 2672 1728 2419 1979 
Q 2166 2231 1775 2231 
Q 1616 2231 1378 2169 
L 1441 2663 
Q 1497 2656 1531 2656 
Q 1891 2656 2178 2843 
Q 2466 3031 2466 3422 
Q 2466 3731 2256 3934 
Q 2047 4138 1716 4138 
Q 1388 4138 1169 3931 
Q 950 3725 888 3313 
L 325 3413 
Q 428 3978 793 4289 
Q 1159 4600 1703 4600 
Q 2078 4600 2393 4439 
Q 2709 4278 2876 4000 
Q 3044 3722 3044 3409 
Q 3044 3113 2884 2869 
Q 2725 2625 2413 2481 
Q 2819 2388 3044 2092 
Q 3269 1797 3269 1353 
Q 3269 753 2831 336 
Q 2394 -81 1725 -81 
Q 1122 -81 723 278 
Q 325 638 269 1209 
z
" transform="scale(0.015625)"/>
       </defs>
       <use xlink:href="#ArialMT-30"/>
       <use xlink:href="#ArialMT-2e" transform="translate(55.615234 0)"/>
       <use xlink:href="#ArialMT-30" transform="translate(83.398438 0)"/>
       <use xlink:href="#ArialMT-33" transform="translate(139.013672 0)"/>
      </g>
     </g>
    </g>
    <g id="xtick_5">
     <g id="line2d_9">
      <path d="M 260.352391 235.182568 
L 260.352391 10.8 
" clip-path="url(#pa1712abb30)" style="fill: none; stroke: #b0b0b0; stroke-width: 0.8; stroke-linecap: square"/>
     </g>
     <g id="line2d_10">
      <g>
       <use xlink:href="#mbbc2c244ae" x="260.352391" y="235.182568" style="stroke: #000000; stroke-width: 0.8"/>
      </g>
     </g>
     <g id="text_5">
      <!-- 0.04 -->
      <g transform="translate(255.299892 261.004867) rotate(-45) scale(0.1 -0.1)">
       <defs>
        <path id="ArialMT-34" d="M 2069 0 
L 2069 1097 
L 81 1097 
L 81 1613 
L 2172 4581 
L 2631 4581 
L 2631 1613 
L 3250 1613 
L 3250 1097 
L 2631 1097 
L 2631 0 
L 2069 0 
z
M 2069 1613 
L 2069 3678 
L 634 1613 
L 2069 1613 
z
" transform="scale(0.015625)"/>
       </defs>
       <use xlink:href="#ArialMT-30"/>
       <use xlink:href="#ArialMT-2e" transform="translate(55.615234 0)"/>
       <use xlink:href="#ArialMT-30" transform="translate(83.398438 0)"/>
       <use xlink:href="#ArialMT-34" transform="translate(139.013672 0)"/>
      </g>
     </g>
    </g>
    <g id="xtick_6">
     <g id="line2d_11">
      <path d="M 305.515 235.182568 
L 305.515 10.8 
" clip-path="url(#pa1712abb30)" style="fill: none; stroke: #b0b0b0; stroke-width: 0.8; stroke-linecap: square"/>
     </g>
     <g id="line2d_12">
      <g>
       <use xlink:href="#mbbc2c244ae" x="305.515" y="235.182568" style="stroke: #000000; stroke-width: 0.8"/>
      </g>
     </g>
     <g id="text_6">
      <!-- 0.05 -->
      <g transform="translate(300.462501 261.004867) rotate(-45) scale(0.1 -0.1)">
       <defs>
        <path id="ArialMT-35" d="M 266 1200 
L 856 1250 
Q 922 819 1161 601 
Q 1400 384 1738 384 
Q 2144 384 2425 690 
Q 2706 997 2706 1503 
Q 2706 1984 2436 2262 
Q 2166 2541 1728 2541 
Q 1456 2541 1237 2417 
Q 1019 2294 894 2097 
L 366 2166 
L 809 4519 
L 3088 4519 
L 3088 3981 
L 1259 3981 
L 1013 2750 
Q 1425 3038 1878 3038 
Q 2478 3038 2890 2622 
Q 3303 2206 3303 1553 
Q 3303 931 2941 478 
Q 2500 -78 1738 -78 
Q 1113 -78 717 272 
Q 322 622 266 1200 
z
" transform="scale(0.015625)"/>
       </defs>
       <use xlink:href="#ArialMT-30"/>
       <use xlink:href="#ArialMT-2e" transform="translate(55.615234 0)"/>
       <use xlink:href="#ArialMT-30" transform="translate(83.398438 0)"/>
       <use xlink:href="#ArialMT-35" transform="translate(139.013672 0)"/>
      </g>
     </g>
    </g>
    <g id="xtick_7">
     <g id="line2d_13">
      <path d="M 350.677609 235.182568 
L 350.677609 10.8 
" clip-path="url(#pa1712abb30)" style="fill: none; stroke: #b0b0b0; stroke-width: 0.8; stroke-linecap: square"/>
     </g>
     <g id="line2d_14">
      <g>
       <use xlink:href="#mbbc2c244ae" x="350.677609" y="235.182568" style="stroke: #000000; stroke-width: 0.8"/>
      </g>
     </g>
     <g id="text_7">
      <!-- 0.06 -->
      <g transform="translate(345.62511 261.004867) rotate(-45) scale(0.1 -0.1)">
       <defs>
        <path id="ArialMT-36" d="M 3184 3459 
L 2625 3416 
Q 2550 3747 2413 3897 
Q 2184 4138 1850 4138 
Q 1581 4138 1378 3988 
Q 1113 3794 959 3422 
Q 806 3050 800 2363 
Q 1003 2672 1297 2822 
Q 1591 2972 1913 2972 
Q 2475 2972 2870 2558 
Q 3266 2144 3266 1488 
Q 3266 1056 3080 686 
Q 2894 316 2569 119 
Q 2244 -78 1831 -78 
Q 1128 -78 684 439 
Q 241 956 241 2144 
Q 241 3472 731 4075 
Q 1159 4600 1884 4600 
Q 2425 4600 2770 4297 
Q 3116 3994 3184 3459 
z
M 888 1484 
Q 888 1194 1011 928 
Q 1134 663 1356 523 
Q 1578 384 1822 384 
Q 2178 384 2434 671 
Q 2691 959 2691 1453 
Q 2691 1928 2437 2201 
Q 2184 2475 1800 2475 
Q 1419 2475 1153 2201 
Q 888 1928 888 1484 
z
" transform="scale(0.015625)"/>
       </defs>
       <use xlink:href="#ArialMT-30"/>
       <use xlink:href="#ArialMT-2e" transform="translate(55.615234 0)"/>
       <use xlink:href="#ArialMT-30" transform="translate(83.398438 0)"/>
       <use xlink:href="#ArialMT-36" transform="translate(139.013672 0)"/>
      </g>
     </g>
    </g>
    <g id="xtick_8">
     <g id="line2d_15">
      <path d="M 395.840217 235.182568 
L 395.840217 10.8 
" clip-path="url(#pa1712abb30)" style="fill: none; stroke: #b0b0b0; stroke-width: 0.8; stroke-linecap: square"/>
     </g>
     <g id="line2d_16">
      <g>
       <use xlink:href="#mbbc2c244ae" x="395.840217" y="235.182568" style="stroke: #000000; stroke-width: 0.8"/>
      </g>
     </g>
     <g id="text_8">
      <!-- 0.07 -->
      <g transform="translate(390.787718 261.004867) rotate(-45) scale(0.1 -0.1)">
       <defs>
        <path id="ArialMT-37" d="M 303 3981 
L 303 4522 
L 3269 4522 
L 3269 4084 
Q 2831 3619 2401 2847 
Q 1972 2075 1738 1259 
Q 1569 684 1522 0 
L 944 0 
Q 953 541 1156 1306 
Q 1359 2072 1739 2783 
Q 2119 3494 2547 3981 
L 303 3981 
z
" transform="scale(0.015625)"/>
       </defs>
       <use xlink:href="#ArialMT-30"/>
       <use xlink:href="#ArialMT-2e" transform="translate(55.615234 0)"/>
       <use xlink:href="#ArialMT-30" transform="translate(83.398438 0)"/>
       <use xlink:href="#ArialMT-37" transform="translate(139.013672 0)"/>
      </g>
     </g>
    </g>
    <g id="xtick_9">
     <g id="line2d_17">
      <path d="M 441.002826 235.182568 
L 441.002826 10.8 
" clip-path="url(#pa1712abb30)" style="fill: none; stroke: #b0b0b0; stroke-width: 0.8; stroke-linecap: square"/>
     </g>
     <g id="line2d_18">
      <g>
       <use xlink:href="#mbbc2c244ae" x="441.002826" y="235.182568" style="stroke: #000000; stroke-width: 0.8"/>
      </g>
     </g>
     <g id="text_9">
      <!-- 0.08 -->
      <g transform="translate(435.950327 261.004867) rotate(-45) scale(0.1 -0.1)">
       <defs>
        <path id="ArialMT-38" d="M 1131 2484 
Q 781 2613 612 2850 
Q 444 3088 444 3419 
Q 444 3919 803 4259 
Q 1163 4600 1759 4600 
Q 2359 4600 2725 4251 
Q 3091 3903 3091 3403 
Q 3091 3084 2923 2848 
Q 2756 2613 2416 2484 
Q 2838 2347 3058 2040 
Q 3278 1734 3278 1309 
Q 3278 722 2862 322 
Q 2447 -78 1769 -78 
Q 1091 -78 675 323 
Q 259 725 259 1325 
Q 259 1772 486 2073 
Q 713 2375 1131 2484 
z
M 1019 3438 
Q 1019 3113 1228 2906 
Q 1438 2700 1772 2700 
Q 2097 2700 2305 2904 
Q 2513 3109 2513 3406 
Q 2513 3716 2298 3927 
Q 2084 4138 1766 4138 
Q 1444 4138 1231 3931 
Q 1019 3725 1019 3438 
z
M 838 1322 
Q 838 1081 952 856 
Q 1066 631 1291 507 
Q 1516 384 1775 384 
Q 2178 384 2440 643 
Q 2703 903 2703 1303 
Q 2703 1709 2433 1975 
Q 2163 2241 1756 2241 
Q 1359 2241 1098 1978 
Q 838 1716 838 1322 
z
" transform="scale(0.015625)"/>
       </defs>
       <use xlink:href="#ArialMT-30"/>
       <use xlink:href="#ArialMT-2e" transform="translate(55.615234 0)"/>
       <use xlink:href="#ArialMT-30" transform="translate(83.398438 0)"/>
       <use xlink:href="#ArialMT-38" transform="translate(139.013672 0)"/>
      </g>
     </g>
    </g>
    <g id="xtick_10">
     <g id="line2d_19">
      <path d="M 486.165435 235.182568 
L 486.165435 10.8 
" clip-path="url(#pa1712abb30)" style="fill: none; stroke: #b0b0b0; stroke-width: 0.8; stroke-linecap: square"/>
     </g>
     <g id="line2d_20">
      <g>
       <use xlink:href="#mbbc2c244ae" x="486.165435" y="235.182568" style="stroke: #000000; stroke-width: 0.8"/>
      </g>
     </g>
     <g id="text_10">
      <!-- 0.09 -->
      <g transform="translate(481.112936 261.004867) rotate(-45) scale(0.1 -0.1)">
       <defs>
        <path id="ArialMT-39" d="M 350 1059 
L 891 1109 
Q 959 728 1153 556 
Q 1347 384 1650 384 
Q 1909 384 2104 503 
Q 2300 622 2425 820 
Q 2550 1019 2634 1356 
Q 2719 1694 2719 2044 
Q 2719 2081 2716 2156 
Q 2547 1888 2255 1720 
Q 1963 1553 1622 1553 
Q 1053 1553 659 1965 
Q 266 2378 266 3053 
Q 266 3750 677 4175 
Q 1088 4600 1706 4600 
Q 2153 4600 2523 4359 
Q 2894 4119 3086 3673 
Q 3278 3228 3278 2384 
Q 3278 1506 3087 986 
Q 2897 466 2520 194 
Q 2144 -78 1638 -78 
Q 1100 -78 759 220 
Q 419 519 350 1059 
z
M 2653 3081 
Q 2653 3566 2395 3850 
Q 2138 4134 1775 4134 
Q 1400 4134 1122 3828 
Q 844 3522 844 3034 
Q 844 2597 1108 2323 
Q 1372 2050 1759 2050 
Q 2150 2050 2401 2323 
Q 2653 2597 2653 3081 
z
" transform="scale(0.015625)"/>
       </defs>
       <use xlink:href="#ArialMT-30"/>
       <use xlink:href="#ArialMT-2e" transform="translate(55.615234 0)"/>
       <use xlink:href="#ArialMT-30" transform="translate(83.398438 0)"/>
       <use xlink:href="#ArialMT-39" transform="translate(139.013672 0)"/>
      </g>
     </g>
    </g>
    <g id="xtick_11">
     <g id="line2d_21">
      <path d="M 531.328043 235.182568 
L 531.328043 10.8 
" clip-path="url(#pa1712abb30)" style="fill: none; stroke: #b0b0b0; stroke-width: 0.8; stroke-linecap: square"/>
     </g>
     <g id="line2d_22">
      <g>
       <use xlink:href="#mbbc2c244ae" x="531.328043" y="235.182568" style="stroke: #000000; stroke-width: 0.8"/>
      </g>
     </g>
     <g id="text_11">
      <!-- 0.10 -->
      <g transform="translate(526.275545 261.004867) rotate(-45) scale(0.1 -0.1)">
       <use xlink:href="#ArialMT-30"/>
       <use xlink:href="#ArialMT-2e" transform="translate(55.615234 0)"/>
       <use xlink:href="#ArialMT-31" transform="translate(83.398438 0)"/>
       <use xlink:href="#ArialMT-30" transform="translate(139.013672 0)"/>
      </g>
     </g>
    </g>
    <g id="text_12">
     <!-- Noise level -->
     <g transform="translate(281.060313 273.568054) scale(0.1 -0.1)">
      <defs>
       <path id="ArialMT-4e" d="M 488 0 
L 488 4581 
L 1109 4581 
L 3516 984 
L 3516 4581 
L 4097 4581 
L 4097 0 
L 3475 0 
L 1069 3600 
L 1069 0 
L 488 0 
z
" transform="scale(0.015625)"/>
       <path id="ArialMT-6f" d="M 213 1659 
Q 213 2581 725 3025 
Q 1153 3394 1769 3394 
Q 2453 3394 2887 2945 
Q 3322 2497 3322 1706 
Q 3322 1066 3130 698 
Q 2938 331 2570 128 
Q 2203 -75 1769 -75 
Q 1072 -75 642 372 
Q 213 819 213 1659 
z
M 791 1659 
Q 791 1022 1069 705 
Q 1347 388 1769 388 
Q 2188 388 2466 706 
Q 2744 1025 2744 1678 
Q 2744 2294 2464 2611 
Q 2184 2928 1769 2928 
Q 1347 2928 1069 2612 
Q 791 2297 791 1659 
z
" transform="scale(0.015625)"/>
       <path id="ArialMT-69" d="M 425 3934 
L 425 4581 
L 988 4581 
L 988 3934 
L 425 3934 
z
M 425 0 
L 425 3319 
L 988 3319 
L 988 0 
L 425 0 
z
" transform="scale(0.015625)"/>
       <path id="ArialMT-73" d="M 197 991 
L 753 1078 
Q 800 744 1014 566 
Q 1228 388 1613 388 
Q 2000 388 2187 545 
Q 2375 703 2375 916 
Q 2375 1106 2209 1216 
Q 2094 1291 1634 1406 
Q 1016 1563 777 1677 
Q 538 1791 414 1992 
Q 291 2194 291 2438 
Q 291 2659 392 2848 
Q 494 3038 669 3163 
Q 800 3259 1026 3326 
Q 1253 3394 1513 3394 
Q 1903 3394 2198 3281 
Q 2494 3169 2634 2976 
Q 2775 2784 2828 2463 
L 2278 2388 
Q 2241 2644 2061 2787 
Q 1881 2931 1553 2931 
Q 1166 2931 1000 2803 
Q 834 2675 834 2503 
Q 834 2394 903 2306 
Q 972 2216 1119 2156 
Q 1203 2125 1616 2013 
Q 2213 1853 2448 1751 
Q 2684 1650 2818 1456 
Q 2953 1263 2953 975 
Q 2953 694 2789 445 
Q 2625 197 2315 61 
Q 2006 -75 1616 -75 
Q 969 -75 630 194 
Q 291 463 197 991 
z
" transform="scale(0.015625)"/>
       <path id="ArialMT-65" d="M 2694 1069 
L 3275 997 
Q 3138 488 2766 206 
Q 2394 -75 1816 -75 
Q 1088 -75 661 373 
Q 234 822 234 1631 
Q 234 2469 665 2931 
Q 1097 3394 1784 3394 
Q 2450 3394 2872 2941 
Q 3294 2488 3294 1666 
Q 3294 1616 3291 1516 
L 816 1516 
Q 847 969 1125 678 
Q 1403 388 1819 388 
Q 2128 388 2347 550 
Q 2566 713 2694 1069 
z
M 847 1978 
L 2700 1978 
Q 2663 2397 2488 2606 
Q 2219 2931 1791 2931 
Q 1403 2931 1139 2672 
Q 875 2413 847 1978 
z
" transform="scale(0.015625)"/>
       <path id="ArialMT-20" transform="scale(0.015625)"/>
       <path id="ArialMT-6c" d="M 409 0 
L 409 4581 
L 972 4581 
L 972 0 
L 409 0 
z
" transform="scale(0.015625)"/>
       <path id="ArialMT-76" d="M 1344 0 
L 81 3319 
L 675 3319 
L 1388 1331 
Q 1503 1009 1600 663 
Q 1675 925 1809 1294 
L 2547 3319 
L 3125 3319 
L 1869 0 
L 1344 0 
z
" transform="scale(0.015625)"/>
      </defs>
      <use xlink:href="#ArialMT-4e"/>
      <use xlink:href="#ArialMT-6f" transform="translate(72.216797 0)"/>
      <use xlink:href="#ArialMT-69" transform="translate(127.832031 0)"/>
      <use xlink:href="#ArialMT-73" transform="translate(150.048828 0)"/>
      <use xlink:href="#ArialMT-65" transform="translate(200.048828 0)"/>
      <use xlink:href="#ArialMT-20" transform="translate(255.664062 0)"/>
      <use xlink:href="#ArialMT-6c" transform="translate(283.447266 0)"/>
      <use xlink:href="#ArialMT-65" transform="translate(305.664062 0)"/>
      <use xlink:href="#ArialMT-76" transform="translate(361.279297 0)"/>
      <use xlink:href="#ArialMT-65" transform="translate(411.279297 0)"/>
      <use xlink:href="#ArialMT-6c" transform="translate(466.894531 0)"/>
     </g>
    </g>
   </g>
   <g id="matplotlib.axis_2">
    <g id="ytick_1">
     <g id="line2d_23">
      <path d="M 45.83 224.983361 
L 565.2 224.983361 
" clip-path="url(#pa1712abb30)" style="fill: none; stroke: #b0b0b0; stroke-width: 0.8; stroke-linecap: square"/>
     </g>
     <g id="line2d_24">
      <defs>
       <path id="md3ccafe081" d="M 0 0 
L -3.5 0 
" style="stroke: #000000; stroke-width: 0.8"/>
      </defs>
      <g>
       <use xlink:href="#md3ccafe081" x="45.83" y="224.983361" style="stroke: #000000; stroke-width: 0.8"/>
      </g>
     </g>
     <g id="text_13">
      <!-- 0.0 -->
      <g transform="translate(24.93 228.562267) scale(0.1 -0.1)">
       <use xlink:href="#ArialMT-30"/>
       <use xlink:href="#ArialMT-2e" transform="translate(55.615234 0)"/>
       <use xlink:href="#ArialMT-30" transform="translate(83.398438 0)"/>
      </g>
     </g>
    </g>
    <g id="ytick_2">
     <g id="line2d_25">
      <path d="M 45.83 193.879086 
L 565.2 193.879086 
" clip-path="url(#pa1712abb30)" style="fill: none; stroke: #b0b0b0; stroke-width: 0.8; stroke-linecap: square"/>
     </g>
     <g id="line2d_26">
      <g>
       <use xlink:href="#md3ccafe081" x="45.83" y="193.879086" style="stroke: #000000; stroke-width: 0.8"/>
      </g>
     </g>
     <g id="text_14">
      <!-- 0.1 -->
      <g transform="translate(24.93 197.457992) scale(0.1 -0.1)">
       <use xlink:href="#ArialMT-30"/>
       <use xlink:href="#ArialMT-2e" transform="translate(55.615234 0)"/>
       <use xlink:href="#ArialMT-31" transform="translate(83.398438 0)"/>
      </g>
     </g>
    </g>
    <g id="ytick_3">
     <g id="line2d_27">
      <path d="M 45.83 162.774811 
L 565.2 162.774811 
" clip-path="url(#pa1712abb30)" style="fill: none; stroke: #b0b0b0; stroke-width: 0.8; stroke-linecap: square"/>
     </g>
     <g id="line2d_28">
      <g>
       <use xlink:href="#md3ccafe081" x="45.83" y="162.774811" style="stroke: #000000; stroke-width: 0.8"/>
      </g>
     </g>
     <g id="text_15">
      <!-- 0.2 -->
      <g transform="translate(24.93 166.353717) scale(0.1 -0.1)">
       <use xlink:href="#ArialMT-30"/>
       <use xlink:href="#ArialMT-2e" transform="translate(55.615234 0)"/>
       <use xlink:href="#ArialMT-32" transform="translate(83.398438 0)"/>
      </g>
     </g>
    </g>
    <g id="ytick_4">
     <g id="line2d_29">
      <path d="M 45.83 131.670536 
L 565.2 131.670536 
" clip-path="url(#pa1712abb30)" style="fill: none; stroke: #b0b0b0; stroke-width: 0.8; stroke-linecap: square"/>
     </g>
     <g id="line2d_30">
      <g>
       <use xlink:href="#md3ccafe081" x="45.83" y="131.670536" style="stroke: #000000; stroke-width: 0.8"/>
      </g>
     </g>
     <g id="text_16">
      <!-- 0.3 -->
      <g transform="translate(24.93 135.249442) scale(0.1 -0.1)">
       <use xlink:href="#ArialMT-30"/>
       <use xlink:href="#ArialMT-2e" transform="translate(55.615234 0)"/>
       <use xlink:href="#ArialMT-33" transform="translate(83.398438 0)"/>
      </g>
     </g>
    </g>
    <g id="ytick_5">
     <g id="line2d_31">
      <path d="M 45.83 100.566261 
L 565.2 100.566261 
" clip-path="url(#pa1712abb30)" style="fill: none; stroke: #b0b0b0; stroke-width: 0.8; stroke-linecap: square"/>
     </g>
     <g id="line2d_32">
      <g>
       <use xlink:href="#md3ccafe081" x="45.83" y="100.566261" style="stroke: #000000; stroke-width: 0.8"/>
      </g>
     </g>
     <g id="text_17">
      <!-- 0.4 -->
      <g transform="translate(24.93 104.145167) scale(0.1 -0.1)">
       <use xlink:href="#ArialMT-30"/>
       <use xlink:href="#ArialMT-2e" transform="translate(55.615234 0)"/>
       <use xlink:href="#ArialMT-34" transform="translate(83.398438 0)"/>
      </g>
     </g>
    </g>
    <g id="ytick_6">
     <g id="line2d_33">
      <path d="M 45.83 69.461986 
L 565.2 69.461986 
" clip-path="url(#pa1712abb30)" style="fill: none; stroke: #b0b0b0; stroke-width: 0.8; stroke-linecap: square"/>
     </g>
     <g id="line2d_34">
      <g>
       <use xlink:href="#md3ccafe081" x="45.83" y="69.461986" style="stroke: #000000; stroke-width: 0.8"/>
      </g>
     </g>
     <g id="text_18">
      <!-- 0.5 -->
      <g transform="translate(24.93 73.040892) scale(0.1 -0.1)">
       <use xlink:href="#ArialMT-30"/>
       <use xlink:href="#ArialMT-2e" transform="translate(55.615234 0)"/>
       <use xlink:href="#ArialMT-35" transform="translate(83.398438 0)"/>
      </g>
     </g>
    </g>
    <g id="ytick_7">
     <g id="line2d_35">
      <path d="M 45.83 38.357711 
L 565.2 38.357711 
" clip-path="url(#pa1712abb30)" style="fill: none; stroke: #b0b0b0; stroke-width: 0.8; stroke-linecap: square"/>
     </g>
     <g id="line2d_36">
      <g>
       <use xlink:href="#md3ccafe081" x="45.83" y="38.357711" style="stroke: #000000; stroke-width: 0.8"/>
      </g>
     </g>
     <g id="text_19">
      <!-- 0.6 -->
      <g transform="translate(24.93 41.936617) scale(0.1 -0.1)">
       <use xlink:href="#ArialMT-30"/>
       <use xlink:href="#ArialMT-2e" transform="translate(55.615234 0)"/>
       <use xlink:href="#ArialMT-36" transform="translate(83.398438 0)"/>
      </g>
     </g>
    </g>
    <g id="text_20">
     <!-- Rotation error (deg) -->
     <g transform="translate(18.825313 166.617847) rotate(-90) scale(0.1 -0.1)">
      <defs>
       <path id="ArialMT-52" d="M 503 0 
L 503 4581 
L 2534 4581 
Q 3147 4581 3465 4457 
Q 3784 4334 3975 4021 
Q 4166 3709 4166 3331 
Q 4166 2844 3850 2509 
Q 3534 2175 2875 2084 
Q 3116 1969 3241 1856 
Q 3506 1613 3744 1247 
L 4541 0 
L 3778 0 
L 3172 953 
Q 2906 1366 2734 1584 
Q 2563 1803 2427 1890 
Q 2291 1978 2150 2013 
Q 2047 2034 1813 2034 
L 1109 2034 
L 1109 0 
L 503 0 
z
M 1109 2559 
L 2413 2559 
Q 2828 2559 3062 2645 
Q 3297 2731 3419 2920 
Q 3541 3109 3541 3331 
Q 3541 3656 3305 3865 
Q 3069 4075 2559 4075 
L 1109 4075 
L 1109 2559 
z
" transform="scale(0.015625)"/>
       <path id="ArialMT-74" d="M 1650 503 
L 1731 6 
Q 1494 -44 1306 -44 
Q 1000 -44 831 53 
Q 663 150 594 308 
Q 525 466 525 972 
L 525 2881 
L 113 2881 
L 113 3319 
L 525 3319 
L 525 4141 
L 1084 4478 
L 1084 3319 
L 1650 3319 
L 1650 2881 
L 1084 2881 
L 1084 941 
Q 1084 700 1114 631 
Q 1144 563 1211 522 
Q 1278 481 1403 481 
Q 1497 481 1650 503 
z
" transform="scale(0.015625)"/>
       <path id="ArialMT-61" d="M 2588 409 
Q 2275 144 1986 34 
Q 1697 -75 1366 -75 
Q 819 -75 525 192 
Q 231 459 231 875 
Q 231 1119 342 1320 
Q 453 1522 633 1644 
Q 813 1766 1038 1828 
Q 1203 1872 1538 1913 
Q 2219 1994 2541 2106 
Q 2544 2222 2544 2253 
Q 2544 2597 2384 2738 
Q 2169 2928 1744 2928 
Q 1347 2928 1158 2789 
Q 969 2650 878 2297 
L 328 2372 
Q 403 2725 575 2942 
Q 747 3159 1072 3276 
Q 1397 3394 1825 3394 
Q 2250 3394 2515 3294 
Q 2781 3194 2906 3042 
Q 3031 2891 3081 2659 
Q 3109 2516 3109 2141 
L 3109 1391 
Q 3109 606 3145 398 
Q 3181 191 3288 0 
L 2700 0 
Q 2613 175 2588 409 
z
M 2541 1666 
Q 2234 1541 1622 1453 
Q 1275 1403 1131 1340 
Q 988 1278 909 1158 
Q 831 1038 831 891 
Q 831 666 1001 516 
Q 1172 366 1500 366 
Q 1825 366 2078 508 
Q 2331 650 2450 897 
Q 2541 1088 2541 1459 
L 2541 1666 
z
" transform="scale(0.015625)"/>
       <path id="ArialMT-6e" d="M 422 0 
L 422 3319 
L 928 3319 
L 928 2847 
Q 1294 3394 1984 3394 
Q 2284 3394 2536 3286 
Q 2788 3178 2913 3003 
Q 3038 2828 3088 2588 
Q 3119 2431 3119 2041 
L 3119 0 
L 2556 0 
L 2556 2019 
Q 2556 2363 2490 2533 
Q 2425 2703 2258 2804 
Q 2091 2906 1866 2906 
Q 1506 2906 1245 2678 
Q 984 2450 984 1813 
L 984 0 
L 422 0 
z
" transform="scale(0.015625)"/>
       <path id="ArialMT-72" d="M 416 0 
L 416 3319 
L 922 3319 
L 922 2816 
Q 1116 3169 1280 3281 
Q 1444 3394 1641 3394 
Q 1925 3394 2219 3213 
L 2025 2691 
Q 1819 2813 1613 2813 
Q 1428 2813 1281 2702 
Q 1134 2591 1072 2394 
Q 978 2094 978 1738 
L 978 0 
L 416 0 
z
" transform="scale(0.015625)"/>
       <path id="ArialMT-28" d="M 1497 -1347 
Q 1031 -759 709 28 
Q 388 816 388 1659 
Q 388 2403 628 3084 
Q 909 3875 1497 4659 
L 1900 4659 
Q 1522 4009 1400 3731 
Q 1209 3300 1100 2831 
Q 966 2247 966 1656 
Q 966 153 1900 -1347 
L 1497 -1347 
z
" transform="scale(0.015625)"/>
       <path id="ArialMT-64" d="M 2575 0 
L 2575 419 
Q 2259 -75 1647 -75 
Q 1250 -75 917 144 
Q 584 363 401 755 
Q 219 1147 219 1656 
Q 219 2153 384 2558 
Q 550 2963 881 3178 
Q 1213 3394 1622 3394 
Q 1922 3394 2156 3267 
Q 2391 3141 2538 2938 
L 2538 4581 
L 3097 4581 
L 3097 0 
L 2575 0 
z
M 797 1656 
Q 797 1019 1065 703 
Q 1334 388 1700 388 
Q 2069 388 2326 689 
Q 2584 991 2584 1609 
Q 2584 2291 2321 2609 
Q 2059 2928 1675 2928 
Q 1300 2928 1048 2622 
Q 797 2316 797 1656 
z
" transform="scale(0.015625)"/>
       <path id="ArialMT-67" d="M 319 -275 
L 866 -356 
Q 900 -609 1056 -725 
Q 1266 -881 1628 -881 
Q 2019 -881 2231 -725 
Q 2444 -569 2519 -288 
Q 2563 -116 2559 434 
Q 2191 0 1641 0 
Q 956 0 581 494 
Q 206 988 206 1678 
Q 206 2153 378 2554 
Q 550 2956 876 3175 
Q 1203 3394 1644 3394 
Q 2231 3394 2613 2919 
L 2613 3319 
L 3131 3319 
L 3131 450 
Q 3131 -325 2973 -648 
Q 2816 -972 2473 -1159 
Q 2131 -1347 1631 -1347 
Q 1038 -1347 672 -1080 
Q 306 -813 319 -275 
z
M 784 1719 
Q 784 1066 1043 766 
Q 1303 466 1694 466 
Q 2081 466 2343 764 
Q 2606 1063 2606 1700 
Q 2606 2309 2336 2618 
Q 2066 2928 1684 2928 
Q 1309 2928 1046 2623 
Q 784 2319 784 1719 
z
" transform="scale(0.015625)"/>
       <path id="ArialMT-29" d="M 791 -1347 
L 388 -1347 
Q 1322 153 1322 1656 
Q 1322 2244 1188 2822 
Q 1081 3291 891 3722 
Q 769 4003 388 4659 
L 791 4659 
Q 1378 3875 1659 3084 
Q 1900 2403 1900 1659 
Q 1900 816 1576 28 
Q 1253 -759 791 -1347 
z
" transform="scale(0.015625)"/>
      </defs>
      <use xlink:href="#ArialMT-52"/>
      <use xlink:href="#ArialMT-6f" transform="translate(72.216797 0)"/>
      <use xlink:href="#ArialMT-74" transform="translate(127.832031 0)"/>
      <use xlink:href="#ArialMT-61" transform="translate(155.615234 0)"/>
      <use xlink:href="#ArialMT-74" transform="translate(211.230469 0)"/>
      <use xlink:href="#ArialMT-69" transform="translate(239.013672 0)"/>
      <use xlink:href="#ArialMT-6f" transform="translate(261.230469 0)"/>
      <use xlink:href="#ArialMT-6e" transform="translate(316.845703 0)"/>
      <use xlink:href="#ArialMT-20" transform="translate(372.460938 0)"/>
      <use xlink:href="#ArialMT-65" transform="translate(400.244141 0)"/>
      <use xlink:href="#ArialMT-72" transform="translate(455.859375 0)"/>
      <use xlink:href="#ArialMT-72" transform="translate(489.160156 0)"/>
      <use xlink:href="#ArialMT-6f" transform="translate(522.460938 0)"/>
      <use xlink:href="#ArialMT-72" transform="translate(578.076172 0)"/>
      <use xlink:href="#ArialMT-20" transform="translate(611.376953 0)"/>
      <use xlink:href="#ArialMT-28" transform="translate(639.160156 0)"/>
      <use xlink:href="#ArialMT-64" transform="translate(672.460938 0)"/>
      <use xlink:href="#ArialMT-65" transform="translate(728.076172 0)"/>
      <use xlink:href="#ArialMT-67" transform="translate(783.691406 0)"/>
      <use xlink:href="#ArialMT-29" transform="translate(839.306641 0)"/>
     </g>
    </g>
   </g>
   <g id="patch_3">
    <path d="M 83.089152 224.983361 
L 98.896065 224.983361 
L 98.896065 224.983361 
L 83.089152 224.983361 
L 83.089152 224.983361 
z
" clip-path="url(#pa1712abb30)" style="fill: #0000ff; stroke: #000000; stroke-width: 0.2; stroke-linejoin: miter"/>
   </g>
   <g id="line2d_37">
    <path d="M 90.992609 224.983361 
L 90.992609 224.983361 
" clip-path="url(#pa1712abb30)" style="fill: none; stroke: #000000; stroke-width: 0.5; stroke-linecap: square"/>
   </g>
   <g id="line2d_38">
    <path d="M 90.992609 224.983361 
L 90.992609 224.983361 
" clip-path="url(#pa1712abb30)" style="fill: none; stroke: #000000; stroke-width: 0.5; stroke-linecap: square"/>
   </g>
   <g id="line2d_39">
    <path d="M 87.04088 224.983361 
L 94.944337 224.983361 
" clip-path="url(#pa1712abb30)" style="fill: none; stroke: #000000; stroke-width: 0.5; stroke-linecap: square"/>
   </g>
   <g id="line2d_40">
    <path d="M 87.04088 224.983361 
L 94.944337 224.983361 
" clip-path="url(#pa1712abb30)" style="fill: none; stroke: #000000; stroke-width: 0.5; stroke-linecap: square"/>
   </g>
   <g id="patch_4">
    <path d="M 128.251761 217.489503 
L 144.058674 217.489503 
L 144.058674 209.857119 
L 128.251761 209.857119 
L 128.251761 217.489503 
z
" clip-path="url(#pa1712abb30)" style="fill: #0000ff; stroke: #000000; stroke-width: 0.2; stroke-linejoin: miter"/>
   </g>
   <g id="line2d_41">
    <path d="M 136.155217 217.489503 
L 136.155217 222.155161 
" clip-path="url(#pa1712abb30)" style="fill: none; stroke: #000000; stroke-width: 0.5; stroke-linecap: square"/>
   </g>
   <g id="line2d_42">
    <path d="M 136.155217 209.857119 
L 136.155217 202.103889 
" clip-path="url(#pa1712abb30)" style="fill: none; stroke: #000000; stroke-width: 0.5; stroke-linecap: square"/>
   </g>
   <g id="line2d_43">
    <path d="M 132.203489 222.155161 
L 140.106946 222.155161 
" clip-path="url(#pa1712abb30)" style="fill: none; stroke: #000000; stroke-width: 0.5; stroke-linecap: square"/>
   </g>
   <g id="line2d_44">
    <path d="M 132.203489 202.103889 
L 140.106946 202.103889 
" clip-path="url(#pa1712abb30)" style="fill: none; stroke: #000000; stroke-width: 0.5; stroke-linecap: square"/>
   </g>
   <g id="patch_5">
    <path d="M 173.41437 210.141437 
L 189.221283 210.141437 
L 189.221283 197.334647 
L 173.41437 197.334647 
L 173.41437 210.141437 
z
" clip-path="url(#pa1712abb30)" style="fill: #0000ff; stroke: #000000; stroke-width: 0.2; stroke-linejoin: miter"/>
   </g>
   <g id="line2d_45">
    <path d="M 181.317826 210.141437 
L 181.317826 218.376559 
" clip-path="url(#pa1712abb30)" style="fill: none; stroke: #000000; stroke-width: 0.5; stroke-linecap: square"/>
   </g>
   <g id="line2d_46">
    <path d="M 181.317826 197.334647 
L 181.317826 181.058996 
" clip-path="url(#pa1712abb30)" style="fill: none; stroke: #000000; stroke-width: 0.5; stroke-linecap: square"/>
   </g>
   <g id="line2d_47">
    <path d="M 177.366098 218.376559 
L 185.269554 218.376559 
" clip-path="url(#pa1712abb30)" style="fill: none; stroke: #000000; stroke-width: 0.5; stroke-linecap: square"/>
   </g>
   <g id="line2d_48">
    <path d="M 177.366098 181.058996 
L 185.269554 181.058996 
" clip-path="url(#pa1712abb30)" style="fill: none; stroke: #000000; stroke-width: 0.5; stroke-linecap: square"/>
   </g>
   <g id="patch_6">
    <path d="M 218.576978 201.877584 
L 234.383891 201.877584 
L 234.383891 185.644714 
L 218.576978 185.644714 
L 218.576978 201.877584 
z
" clip-path="url(#pa1712abb30)" style="fill: #0000ff; stroke: #000000; stroke-width: 0.2; stroke-linejoin: miter"/>
   </g>
   <g id="line2d_49">
    <path d="M 226.480435 201.877584 
L 226.480435 219.555531 
" clip-path="url(#pa1712abb30)" style="fill: none; stroke: #000000; stroke-width: 0.5; stroke-linecap: square"/>
   </g>
   <g id="line2d_50">
    <path d="M 226.480435 185.644714 
L 226.480435 164.454167 
" clip-path="url(#pa1712abb30)" style="fill: none; stroke: #000000; stroke-width: 0.5; stroke-linecap: square"/>
   </g>
   <g id="line2d_51">
    <path d="M 222.528707 219.555531 
L 230.432163 219.555531 
" clip-path="url(#pa1712abb30)" style="fill: none; stroke: #000000; stroke-width: 0.5; stroke-linecap: square"/>
   </g>
   <g id="line2d_52">
    <path d="M 222.528707 164.454167 
L 230.432163 164.454167 
" clip-path="url(#pa1712abb30)" style="fill: none; stroke: #000000; stroke-width: 0.5; stroke-linecap: square"/>
   </g>
   <g id="patch_7">
    <path d="M 263.739587 193.590866 
L 279.5465 193.590866 
L 279.5465 171.69851 
L 263.739587 171.69851 
L 263.739587 193.590866 
z
" clip-path="url(#pa1712abb30)" style="fill: #0000ff; stroke: #000000; stroke-width: 0.2; stroke-linejoin: miter"/>
   </g>
   <g id="line2d_53">
    <path d="M 271.643043 193.590866 
L 271.643043 211.954036 
" clip-path="url(#pa1712abb30)" style="fill: none; stroke: #000000; stroke-width: 0.5; stroke-linecap: square"/>
   </g>
   <g id="line2d_54">
    <path d="M 271.643043 171.69851 
L 271.643043 140.785185 
" clip-path="url(#pa1712abb30)" style="fill: none; stroke: #000000; stroke-width: 0.5; stroke-linecap: square"/>
   </g>
   <g id="line2d_55">
    <path d="M 267.691315 211.954036 
L 275.594772 211.954036 
" clip-path="url(#pa1712abb30)" style="fill: none; stroke: #000000; stroke-width: 0.5; stroke-linecap: square"/>
   </g>
   <g id="line2d_56">
    <path d="M 267.691315 140.785185 
L 275.594772 140.785185 
" clip-path="url(#pa1712abb30)" style="fill: none; stroke: #000000; stroke-width: 0.5; stroke-linecap: square"/>
   </g>
   <g id="patch_8">
    <path d="M 308.902196 186.439282 
L 324.709109 186.439282 
L 324.709109 157.723351 
L 308.902196 157.723351 
L 308.902196 186.439282 
z
" clip-path="url(#pa1712abb30)" style="fill: #0000ff; stroke: #000000; stroke-width: 0.2; stroke-linejoin: miter"/>
   </g>
   <g id="line2d_57">
    <path d="M 316.805652 186.439282 
L 316.805652 221.128374 
" clip-path="url(#pa1712abb30)" style="fill: none; stroke: #000000; stroke-width: 0.5; stroke-linecap: square"/>
   </g>
   <g id="line2d_58">
    <path d="M 316.805652 157.723351 
L 316.805652 114.781281 
" clip-path="url(#pa1712abb30)" style="fill: none; stroke: #000000; stroke-width: 0.5; stroke-linecap: square"/>
   </g>
   <g id="line2d_59">
    <path d="M 312.853924 221.128374 
L 320.75738 221.128374 
" clip-path="url(#pa1712abb30)" style="fill: none; stroke: #000000; stroke-width: 0.5; stroke-linecap: square"/>
   </g>
   <g id="line2d_60">
    <path d="M 312.853924 114.781281 
L 320.75738 114.781281 
" clip-path="url(#pa1712abb30)" style="fill: none; stroke: #000000; stroke-width: 0.5; stroke-linecap: square"/>
   </g>
   <g id="patch_9">
    <path d="M 354.064804 179.196297 
L 369.871717 179.196297 
L 369.871717 141.683842 
L 354.064804 141.683842 
L 354.064804 179.196297 
z
" clip-path="url(#pa1712abb30)" style="fill: #0000ff; stroke: #000000; stroke-width: 0.2; stroke-linejoin: miter"/>
   </g>
   <g id="line2d_61">
    <path d="M 361.968261 179.196297 
L 361.968261 217.969494 
" clip-path="url(#pa1712abb30)" style="fill: none; stroke: #000000; stroke-width: 0.5; stroke-linecap: square"/>
   </g>
   <g id="line2d_62">
    <path d="M 361.968261 141.683842 
L 361.968261 87.490426 
" clip-path="url(#pa1712abb30)" style="fill: none; stroke: #000000; stroke-width: 0.5; stroke-linecap: square"/>
   </g>
   <g id="line2d_63">
    <path d="M 358.016533 217.969494 
L 365.919989 217.969494 
" clip-path="url(#pa1712abb30)" style="fill: none; stroke: #000000; stroke-width: 0.5; stroke-linecap: square"/>
   </g>
   <g id="line2d_64">
    <path d="M 358.016533 87.490426 
L 365.919989 87.490426 
" clip-path="url(#pa1712abb30)" style="fill: none; stroke: #000000; stroke-width: 0.5; stroke-linecap: square"/>
   </g>
   <g id="patch_10">
    <path d="M 399.227413 173.012292 
L 415.034326 173.012292 
L 415.034326 133.734585 
L 399.227413 133.734585 
L 399.227413 173.012292 
z
" clip-path="url(#pa1712abb30)" style="fill: #0000ff; stroke: #000000; stroke-width: 0.2; stroke-linejoin: miter"/>
   </g>
   <g id="line2d_65">
    <path d="M 407.13087 173.012292 
L 407.13087 217.940386 
" clip-path="url(#pa1712abb30)" style="fill: none; stroke: #000000; stroke-width: 0.5; stroke-linecap: square"/>
   </g>
   <g id="line2d_66">
    <path d="M 407.13087 133.734585 
L 407.13087 86.461098 
" clip-path="url(#pa1712abb30)" style="fill: none; stroke: #000000; stroke-width: 0.5; stroke-linecap: square"/>
   </g>
   <g id="line2d_67">
    <path d="M 403.179141 217.940386 
L 411.082598 217.940386 
" clip-path="url(#pa1712abb30)" style="fill: none; stroke: #000000; stroke-width: 0.5; stroke-linecap: square"/>
   </g>
   <g id="line2d_68">
    <path d="M 403.179141 86.461098 
L 411.082598 86.461098 
" clip-path="url(#pa1712abb30)" style="fill: none; stroke: #000000; stroke-width: 0.5; stroke-linecap: square"/>
   </g>
   <g id="patch_11">
    <path d="M 444.390022 165.804175 
L 460.196935 165.804175 
L 460.196935 110.380367 
L 444.390022 110.380367 
L 444.390022 165.804175 
z
" clip-path="url(#pa1712abb30)" style="fill: #0000ff; stroke: #000000; stroke-width: 0.2; stroke-linejoin: miter"/>
   </g>
   <g id="line2d_69">
    <path d="M 452.293478 165.804175 
L 452.293478 214.656141 
" clip-path="url(#pa1712abb30)" style="fill: none; stroke: #000000; stroke-width: 0.5; stroke-linecap: square"/>
   </g>
   <g id="line2d_70">
    <path d="M 452.293478 110.380367 
L 452.293478 49.923944 
" clip-path="url(#pa1712abb30)" style="fill: none; stroke: #000000; stroke-width: 0.5; stroke-linecap: square"/>
   </g>
   <g id="line2d_71">
    <path d="M 448.34175 214.656141 
L 456.245207 214.656141 
" clip-path="url(#pa1712abb30)" style="fill: none; stroke: #000000; stroke-width: 0.5; stroke-linecap: square"/>
   </g>
   <g id="line2d_72">
    <path d="M 448.34175 49.923944 
L 456.245207 49.923944 
" clip-path="url(#pa1712abb30)" style="fill: none; stroke: #000000; stroke-width: 0.5; stroke-linecap: square"/>
   </g>
   <g id="patch_12">
    <path d="M 489.55263 156.285946 
L 505.359543 156.285946 
L 505.359543 89.807503 
L 489.55263 89.807503 
L 489.55263 156.285946 
z
" clip-path="url(#pa1712abb30)" style="fill: #0000ff; stroke: #000000; stroke-width: 0.2; stroke-linejoin: miter"/>
   </g>
   <g id="line2d_73">
    <path d="M 497.456087 156.285946 
L 497.456087 209.951255 
" clip-path="url(#pa1712abb30)" style="fill: none; stroke: #000000; stroke-width: 0.5; stroke-linecap: square"/>
   </g>
   <g id="line2d_74">
    <path d="M 497.456087 89.807503 
L 497.456087 29.144067 
" clip-path="url(#pa1712abb30)" style="fill: none; stroke: #000000; stroke-width: 0.5; stroke-linecap: square"/>
   </g>
   <g id="line2d_75">
    <path d="M 493.504359 209.951255 
L 501.407815 209.951255 
" clip-path="url(#pa1712abb30)" style="fill: none; stroke: #000000; stroke-width: 0.5; stroke-linecap: square"/>
   </g>
   <g id="line2d_76">
    <path d="M 493.504359 29.144067 
L 501.407815 29.144067 
" clip-path="url(#pa1712abb30)" style="fill: none; stroke: #000000; stroke-width: 0.5; stroke-linecap: square"/>
   </g>
   <g id="patch_13">
    <path d="M 534.715239 145.091002 
L 550.522152 145.091002 
L 550.522152 84.355967 
L 534.715239 84.355967 
L 534.715239 145.091002 
z
" clip-path="url(#pa1712abb30)" style="fill: #0000ff; stroke: #000000; stroke-width: 0.2; stroke-linejoin: miter"/>
   </g>
   <g id="line2d_77">
    <path d="M 542.618696 145.091002 
L 542.618696 190.723816 
" clip-path="url(#pa1712abb30)" style="fill: none; stroke: #000000; stroke-width: 0.5; stroke-linecap: square"/>
   </g>
   <g id="line2d_78">
    <path d="M 542.618696 84.355967 
L 542.618696 20.999208 
" clip-path="url(#pa1712abb30)" style="fill: none; stroke: #000000; stroke-width: 0.5; stroke-linecap: square"/>
   </g>
   <g id="line2d_79">
    <path d="M 538.666967 190.723816 
L 546.570424 190.723816 
" clip-path="url(#pa1712abb30)" style="fill: none; stroke: #000000; stroke-width: 0.5; stroke-linecap: square"/>
   </g>
   <g id="line2d_80">
    <path d="M 538.666967 20.999208 
L 546.570424 20.999208 
" clip-path="url(#pa1712abb30)" style="fill: none; stroke: #000000; stroke-width: 0.5; stroke-linecap: square"/>
   </g>
   <g id="patch_14">
    <path d="M 60.507848 224.983361 
L 76.314761 224.983361 
L 76.314761 224.983361 
L 60.507848 224.983361 
L 60.507848 224.983361 
z
" clip-path="url(#pa1712abb30)" style="fill: #00ff00; stroke: #000000; stroke-width: 0.2; stroke-linejoin: miter"/>
   </g>
   <g id="line2d_81">
    <path d="M 68.411304 224.983361 
L 68.411304 224.983361 
" clip-path="url(#pa1712abb30)" style="fill: none; stroke: #000000; stroke-width: 0.5; stroke-linecap: square"/>
   </g>
   <g id="line2d_82">
    <path d="M 68.411304 224.983361 
L 68.411304 224.983361 
" clip-path="url(#pa1712abb30)" style="fill: none; stroke: #000000; stroke-width: 0.5; stroke-linecap: square"/>
   </g>
   <g id="line2d_83">
    <path d="M 64.459576 224.983361 
L 72.363033 224.983361 
" clip-path="url(#pa1712abb30)" style="fill: none; stroke: #000000; stroke-width: 0.5; stroke-linecap: square"/>
   </g>
   <g id="line2d_84">
    <path d="M 64.459576 224.983361 
L 72.363033 224.983361 
" clip-path="url(#pa1712abb30)" style="fill: none; stroke: #000000; stroke-width: 0.5; stroke-linecap: square"/>
   </g>
   <g id="patch_15">
    <path d="M 105.670457 217.489503 
L 121.47737 217.489503 
L 121.47737 209.857119 
L 105.670457 209.857119 
L 105.670457 217.489503 
z
" clip-path="url(#pa1712abb30)" style="fill: #00ff00; stroke: #000000; stroke-width: 0.2; stroke-linejoin: miter"/>
   </g>
   <g id="line2d_85">
    <path d="M 113.573913 217.489503 
L 113.573913 222.155161 
" clip-path="url(#pa1712abb30)" style="fill: none; stroke: #000000; stroke-width: 0.5; stroke-linecap: square"/>
   </g>
   <g id="line2d_86">
    <path d="M 113.573913 209.857119 
L 113.573913 202.103889 
" clip-path="url(#pa1712abb30)" style="fill: none; stroke: #000000; stroke-width: 0.5; stroke-linecap: square"/>
   </g>
   <g id="line2d_87">
    <path d="M 109.622185 222.155161 
L 117.525641 222.155161 
" clip-path="url(#pa1712abb30)" style="fill: none; stroke: #000000; stroke-width: 0.5; stroke-linecap: square"/>
   </g>
   <g id="line2d_88">
    <path d="M 109.622185 202.103889 
L 117.525641 202.103889 
" clip-path="url(#pa1712abb30)" style="fill: none; stroke: #000000; stroke-width: 0.5; stroke-linecap: square"/>
   </g>
   <g id="patch_16">
    <path d="M 150.833065 210.141437 
L 166.639978 210.141437 
L 166.639978 197.334647 
L 150.833065 197.334647 
L 150.833065 210.141437 
z
" clip-path="url(#pa1712abb30)" style="fill: #00ff00; stroke: #000000; stroke-width: 0.2; stroke-linejoin: miter"/>
   </g>
   <g id="line2d_89">
    <path d="M 158.736522 210.141437 
L 158.736522 218.376559 
" clip-path="url(#pa1712abb30)" style="fill: none; stroke: #000000; stroke-width: 0.5; stroke-linecap: square"/>
   </g>
   <g id="line2d_90">
    <path d="M 158.736522 197.334647 
L 158.736522 181.058996 
" clip-path="url(#pa1712abb30)" style="fill: none; stroke: #000000; stroke-width: 0.5; stroke-linecap: square"/>
   </g>
   <g id="line2d_91">
    <path d="M 154.784793 218.376559 
L 162.68825 218.376559 
" clip-path="url(#pa1712abb30)" style="fill: none; stroke: #000000; stroke-width: 0.5; stroke-linecap: square"/>
   </g>
   <g id="line2d_92">
    <path d="M 154.784793 181.058996 
L 162.68825 181.058996 
" clip-path="url(#pa1712abb30)" style="fill: none; stroke: #000000; stroke-width: 0.5; stroke-linecap: square"/>
   </g>
   <g id="patch_17">
    <path d="M 195.995674 201.877584 
L 211.802587 201.877584 
L 211.802587 185.644714 
L 195.995674 185.644714 
L 195.995674 201.877584 
z
" clip-path="url(#pa1712abb30)" style="fill: #00ff00; stroke: #000000; stroke-width: 0.2; stroke-linejoin: miter"/>
   </g>
   <g id="line2d_93">
    <path d="M 203.89913 201.877584 
L 203.89913 219.555531 
" clip-path="url(#pa1712abb30)" style="fill: none; stroke: #000000; stroke-width: 0.5; stroke-linecap: square"/>
   </g>
   <g id="line2d_94">
    <path d="M 203.89913 185.644714 
L 203.89913 164.454167 
" clip-path="url(#pa1712abb30)" style="fill: none; stroke: #000000; stroke-width: 0.5; stroke-linecap: square"/>
   </g>
   <g id="line2d_95">
    <path d="M 199.947402 219.555531 
L 207.850859 219.555531 
" clip-path="url(#pa1712abb30)" style="fill: none; stroke: #000000; stroke-width: 0.5; stroke-linecap: square"/>
   </g>
   <g id="line2d_96">
    <path d="M 199.947402 164.454167 
L 207.850859 164.454167 
" clip-path="url(#pa1712abb30)" style="fill: none; stroke: #000000; stroke-width: 0.5; stroke-linecap: square"/>
   </g>
   <g id="patch_18">
    <path d="M 241.158283 193.590866 
L 256.965196 193.590866 
L 256.965196 171.69851 
L 241.158283 171.69851 
L 241.158283 193.590866 
z
" clip-path="url(#pa1712abb30)" style="fill: #00ff00; stroke: #000000; stroke-width: 0.2; stroke-linejoin: miter"/>
   </g>
   <g id="line2d_97">
    <path d="M 249.061739 193.590866 
L 249.061739 211.954036 
" clip-path="url(#pa1712abb30)" style="fill: none; stroke: #000000; stroke-width: 0.5; stroke-linecap: square"/>
   </g>
   <g id="line2d_98">
    <path d="M 249.061739 171.69851 
L 249.061739 140.785185 
" clip-path="url(#pa1712abb30)" style="fill: none; stroke: #000000; stroke-width: 0.5; stroke-linecap: square"/>
   </g>
   <g id="line2d_99">
    <path d="M 245.110011 211.954036 
L 253.013467 211.954036 
" clip-path="url(#pa1712abb30)" style="fill: none; stroke: #000000; stroke-width: 0.5; stroke-linecap: square"/>
   </g>
   <g id="line2d_100">
    <path d="M 245.110011 140.785185 
L 253.013467 140.785185 
" clip-path="url(#pa1712abb30)" style="fill: none; stroke: #000000; stroke-width: 0.5; stroke-linecap: square"/>
   </g>
   <g id="patch_19">
    <path d="M 286.320891 186.439282 
L 302.127804 186.439282 
L 302.127804 157.723351 
L 286.320891 157.723351 
L 286.320891 186.439282 
z
" clip-path="url(#pa1712abb30)" style="fill: #00ff00; stroke: #000000; stroke-width: 0.2; stroke-linejoin: miter"/>
   </g>
   <g id="line2d_101">
    <path d="M 294.224348 186.439282 
L 294.224348 221.128374 
" clip-path="url(#pa1712abb30)" style="fill: none; stroke: #000000; stroke-width: 0.5; stroke-linecap: square"/>
   </g>
   <g id="line2d_102">
    <path d="M 294.224348 157.723351 
L 294.224348 114.781281 
" clip-path="url(#pa1712abb30)" style="fill: none; stroke: #000000; stroke-width: 0.5; stroke-linecap: square"/>
   </g>
   <g id="line2d_103">
    <path d="M 290.27262 221.128374 
L 298.176076 221.128374 
" clip-path="url(#pa1712abb30)" style="fill: none; stroke: #000000; stroke-width: 0.5; stroke-linecap: square"/>
   </g>
   <g id="line2d_104">
    <path d="M 290.27262 114.781281 
L 298.176076 114.781281 
" clip-path="url(#pa1712abb30)" style="fill: none; stroke: #000000; stroke-width: 0.5; stroke-linecap: square"/>
   </g>
   <g id="patch_20">
    <path d="M 331.4835 179.196297 
L 347.290413 179.196297 
L 347.290413 141.683842 
L 331.4835 141.683842 
L 331.4835 179.196297 
z
" clip-path="url(#pa1712abb30)" style="fill: #00ff00; stroke: #000000; stroke-width: 0.2; stroke-linejoin: miter"/>
   </g>
   <g id="line2d_105">
    <path d="M 339.386957 179.196297 
L 339.386957 217.969494 
" clip-path="url(#pa1712abb30)" style="fill: none; stroke: #000000; stroke-width: 0.5; stroke-linecap: square"/>
   </g>
   <g id="line2d_106">
    <path d="M 339.386957 141.683842 
L 339.386957 87.490426 
" clip-path="url(#pa1712abb30)" style="fill: none; stroke: #000000; stroke-width: 0.5; stroke-linecap: square"/>
   </g>
   <g id="line2d_107">
    <path d="M 335.435228 217.969494 
L 343.338685 217.969494 
" clip-path="url(#pa1712abb30)" style="fill: none; stroke: #000000; stroke-width: 0.5; stroke-linecap: square"/>
   </g>
   <g id="line2d_108">
    <path d="M 335.435228 87.490426 
L 343.338685 87.490426 
" clip-path="url(#pa1712abb30)" style="fill: none; stroke: #000000; stroke-width: 0.5; stroke-linecap: square"/>
   </g>
   <g id="patch_21">
    <path d="M 376.646109 173.012292 
L 392.453022 173.012292 
L 392.453022 133.734585 
L 376.646109 133.734585 
L 376.646109 173.012292 
z
" clip-path="url(#pa1712abb30)" style="fill: #00ff00; stroke: #000000; stroke-width: 0.2; stroke-linejoin: miter"/>
   </g>
   <g id="line2d_109">
    <path d="M 384.549565 173.012292 
L 384.549565 217.940386 
" clip-path="url(#pa1712abb30)" style="fill: none; stroke: #000000; stroke-width: 0.5; stroke-linecap: square"/>
   </g>
   <g id="line2d_110">
    <path d="M 384.549565 133.734585 
L 384.549565 86.461098 
" clip-path="url(#pa1712abb30)" style="fill: none; stroke: #000000; stroke-width: 0.5; stroke-linecap: square"/>
   </g>
   <g id="line2d_111">
    <path d="M 380.597837 217.940386 
L 388.501293 217.940386 
" clip-path="url(#pa1712abb30)" style="fill: none; stroke: #000000; stroke-width: 0.5; stroke-linecap: square"/>
   </g>
   <g id="line2d_112">
    <path d="M 380.597837 86.461098 
L 388.501293 86.461098 
" clip-path="url(#pa1712abb30)" style="fill: none; stroke: #000000; stroke-width: 0.5; stroke-linecap: square"/>
   </g>
   <g id="patch_22">
    <path d="M 421.808717 165.804175 
L 437.61563 165.804175 
L 437.61563 110.380367 
L 421.808717 110.380367 
L 421.808717 165.804175 
z
" clip-path="url(#pa1712abb30)" style="fill: #00ff00; stroke: #000000; stroke-width: 0.2; stroke-linejoin: miter"/>
   </g>
   <g id="line2d_113">
    <path d="M 429.712174 165.804175 
L 429.712174 214.656141 
" clip-path="url(#pa1712abb30)" style="fill: none; stroke: #000000; stroke-width: 0.5; stroke-linecap: square"/>
   </g>
   <g id="line2d_114">
    <path d="M 429.712174 110.380367 
L 429.712174 49.923944 
" clip-path="url(#pa1712abb30)" style="fill: none; stroke: #000000; stroke-width: 0.5; stroke-linecap: square"/>
   </g>
   <g id="line2d_115">
    <path d="M 425.760446 214.656141 
L 433.663902 214.656141 
" clip-path="url(#pa1712abb30)" style="fill: none; stroke: #000000; stroke-width: 0.5; stroke-linecap: square"/>
   </g>
   <g id="line2d_116">
    <path d="M 425.760446 49.923944 
L 433.663902 49.923944 
" clip-path="url(#pa1712abb30)" style="fill: none; stroke: #000000; stroke-width: 0.5; stroke-linecap: square"/>
   </g>
   <g id="patch_23">
    <path d="M 466.971326 156.285946 
L 482.778239 156.285946 
L 482.778239 89.807503 
L 466.971326 89.807503 
L 466.971326 156.285946 
z
" clip-path="url(#pa1712abb30)" style="fill: #00ff00; stroke: #000000; stroke-width: 0.2; stroke-linejoin: miter"/>
   </g>
   <g id="line2d_117">
    <path d="M 474.874783 156.285946 
L 474.874783 209.951255 
" clip-path="url(#pa1712abb30)" style="fill: none; stroke: #000000; stroke-width: 0.5; stroke-linecap: square"/>
   </g>
   <g id="line2d_118">
    <path d="M 474.874783 89.807503 
L 474.874783 29.144067 
" clip-path="url(#pa1712abb30)" style="fill: none; stroke: #000000; stroke-width: 0.5; stroke-linecap: square"/>
   </g>
   <g id="line2d_119">
    <path d="M 470.923054 209.951255 
L 478.826511 209.951255 
" clip-path="url(#pa1712abb30)" style="fill: none; stroke: #000000; stroke-width: 0.5; stroke-linecap: square"/>
   </g>
   <g id="line2d_120">
    <path d="M 470.923054 29.144067 
L 478.826511 29.144067 
" clip-path="url(#pa1712abb30)" style="fill: none; stroke: #000000; stroke-width: 0.5; stroke-linecap: square"/>
   </g>
   <g id="patch_24">
    <path d="M 512.133935 145.091002 
L 527.940848 145.091002 
L 527.940848 84.355967 
L 512.133935 84.355967 
L 512.133935 145.091002 
z
" clip-path="url(#pa1712abb30)" style="fill: #00ff00; stroke: #000000; stroke-width: 0.2; stroke-linejoin: miter"/>
   </g>
   <g id="line2d_121">
    <path d="M 520.037391 145.091002 
L 520.037391 190.723816 
" clip-path="url(#pa1712abb30)" style="fill: none; stroke: #000000; stroke-width: 0.5; stroke-linecap: square"/>
   </g>
   <g id="line2d_122">
    <path d="M 520.037391 84.355967 
L 520.037391 20.999208 
" clip-path="url(#pa1712abb30)" style="fill: none; stroke: #000000; stroke-width: 0.5; stroke-linecap: square"/>
   </g>
   <g id="line2d_123">
    <path d="M 516.085663 190.723816 
L 523.98912 190.723816 
" clip-path="url(#pa1712abb30)" style="fill: none; stroke: #000000; stroke-width: 0.5; stroke-linecap: square"/>
   </g>
   <g id="line2d_124">
    <path d="M 516.085663 20.999208 
L 523.98912 20.999208 
" clip-path="url(#pa1712abb30)" style="fill: none; stroke: #000000; stroke-width: 0.5; stroke-linecap: square"/>
   </g>
   <g id="line2d_125">
    <path d="M 83.089152 224.983361 
L 98.896065 224.983361 
" clip-path="url(#pa1712abb30)" style="fill: none; stroke: #ff7f0e"/>
   </g>
   <g id="line2d_126">
    <path d="M 128.251761 214.547835 
L 144.058674 214.547835 
" clip-path="url(#pa1712abb30)" style="fill: none; stroke: #ff7f0e"/>
   </g>
   <g id="line2d_127">
    <path d="M 173.41437 203.776769 
L 189.221283 203.776769 
" clip-path="url(#pa1712abb30)" style="fill: none; stroke: #ff7f0e"/>
   </g>
   <g id="line2d_128">
    <path d="M 218.576978 191.770589 
L 234.383891 191.770589 
" clip-path="url(#pa1712abb30)" style="fill: none; stroke: #ff7f0e"/>
   </g>
   <g id="line2d_129">
    <path d="M 263.739587 182.367181 
L 279.5465 182.367181 
" clip-path="url(#pa1712abb30)" style="fill: none; stroke: #ff7f0e"/>
   </g>
   <g id="line2d_130">
    <path d="M 308.902196 172.976079 
L 324.709109 172.976079 
" clip-path="url(#pa1712abb30)" style="fill: none; stroke: #ff7f0e"/>
   </g>
   <g id="line2d_131">
    <path d="M 354.064804 160.054277 
L 369.871717 160.054277 
" clip-path="url(#pa1712abb30)" style="fill: none; stroke: #ff7f0e"/>
   </g>
   <g id="line2d_132">
    <path d="M 399.227413 155.024862 
L 415.034326 155.024862 
" clip-path="url(#pa1712abb30)" style="fill: none; stroke: #ff7f0e"/>
   </g>
   <g id="line2d_133">
    <path d="M 444.390022 143.125772 
L 460.196935 143.125772 
" clip-path="url(#pa1712abb30)" style="fill: none; stroke: #ff7f0e"/>
   </g>
   <g id="line2d_134">
    <path d="M 489.55263 123.782654 
L 505.359543 123.782654 
" clip-path="url(#pa1712abb30)" style="fill: none; stroke: #ff7f0e"/>
   </g>
   <g id="line2d_135">
    <path d="M 534.715239 118.703881 
L 550.522152 118.703881 
" clip-path="url(#pa1712abb30)" style="fill: none; stroke: #ff7f0e"/>
   </g>
   <g id="line2d_136">
    <path d="M 60.507848 224.983361 
L 76.314761 224.983361 
" clip-path="url(#pa1712abb30)" style="fill: none; stroke: #ff7f0e"/>
   </g>
   <g id="line2d_137">
    <path d="M 105.670457 214.547835 
L 121.47737 214.547835 
" clip-path="url(#pa1712abb30)" style="fill: none; stroke: #ff7f0e"/>
   </g>
   <g id="line2d_138">
    <path d="M 150.833065 203.776769 
L 166.639978 203.776769 
" clip-path="url(#pa1712abb30)" style="fill: none; stroke: #ff7f0e"/>
   </g>
   <g id="line2d_139">
    <path d="M 195.995674 191.770589 
L 211.802587 191.770589 
" clip-path="url(#pa1712abb30)" style="fill: none; stroke: #ff7f0e"/>
   </g>
   <g id="line2d_140">
    <path d="M 241.158283 182.367181 
L 256.965196 182.367181 
" clip-path="url(#pa1712abb30)" style="fill: none; stroke: #ff7f0e"/>
   </g>
   <g id="line2d_141">
    <path d="M 286.320891 172.976079 
L 302.127804 172.976079 
" clip-path="url(#pa1712abb30)" style="fill: none; stroke: #ff7f0e"/>
   </g>
   <g id="line2d_142">
    <path d="M 331.4835 160.054277 
L 347.290413 160.054277 
" clip-path="url(#pa1712abb30)" style="fill: none; stroke: #ff7f0e"/>
   </g>
   <g id="line2d_143">
    <path d="M 376.646109 155.024862 
L 392.453022 155.024862 
" clip-path="url(#pa1712abb30)" style="fill: none; stroke: #ff7f0e"/>
   </g>
   <g id="line2d_144">
    <path d="M 421.808717 143.125772 
L 437.61563 143.125772 
" clip-path="url(#pa1712abb30)" style="fill: none; stroke: #ff7f0e"/>
   </g>
   <g id="line2d_145">
    <path d="M 466.971326 123.782654 
L 482.778239 123.782654 
" clip-path="url(#pa1712abb30)" style="fill: none; stroke: #ff7f0e"/>
   </g>
   <g id="line2d_146">
    <path d="M 512.133935 118.703881 
L 527.940848 118.703881 
" clip-path="url(#pa1712abb30)" style="fill: none; stroke: #ff7f0e"/>
   </g>
   <g id="patch_25">
    <path d="M 45.83 235.182568 
L 45.83 10.8 
" style="fill: none; stroke: #000000; stroke-width: 0.8; stroke-linejoin: miter; stroke-linecap: square"/>
   </g>
   <g id="patch_26">
    <path d="M 565.2 235.182568 
L 565.2 10.8 
" style="fill: none; stroke: #000000; stroke-width: 0.8; stroke-linejoin: miter; stroke-linecap: square"/>
   </g>
   <g id="patch_27">
    <path d="M 45.83 235.182568 
L 565.2 235.182568 
" style="fill: none; stroke: #000000; stroke-width: 0.8; stroke-linejoin: miter; stroke-linecap: square"/>
   </g>
   <g id="patch_28">
    <path d="M 45.83 10.8 
L 565.2 10.8 
" style="fill: none; stroke: #000000; stroke-width: 0.8; stroke-linejoin: miter; stroke-linecap: square"/>
   </g>
   <g id="legend_1">
    <g id="patch_29">
     <path d="M 52.83 47.090625 
L 148.755 47.090625 
Q 150.755 47.090625 150.755 45.090625 
L 150.755 17.8 
Q 150.755 15.8 148.755 15.8 
L 52.83 15.8 
Q 50.83 15.8 50.83 17.8 
L 50.83 45.090625 
Q 50.83 47.090625 52.83 47.090625 
z
" style="fill: #ffffff; opacity: 0.8; stroke: #cccccc; stroke-linejoin: miter"/>
    </g>
    <g id="patch_30">
     <path d="M 54.83 26.957812 
L 74.83 26.957812 
L 74.83 19.957812 
L 54.83 19.957812 
z
" style="fill: #0000ff; stroke: #000000; stroke-width: 0.2; stroke-linejoin: miter"/>
    </g>
    <g id="text_21">
     <!-- SVD -->
     <g transform="translate(82.83 26.957812) scale(0.1 -0.1)">
      <defs>
       <path id="ArialMT-53" d="M 288 1472 
L 859 1522 
Q 900 1178 1048 958 
Q 1197 738 1509 602 
Q 1822 466 2213 466 
Q 2559 466 2825 569 
Q 3091 672 3220 851 
Q 3350 1031 3350 1244 
Q 3350 1459 3225 1620 
Q 3100 1781 2813 1891 
Q 2628 1963 1997 2114 
Q 1366 2266 1113 2400 
Q 784 2572 623 2826 
Q 463 3081 463 3397 
Q 463 3744 659 4045 
Q 856 4347 1234 4503 
Q 1613 4659 2075 4659 
Q 2584 4659 2973 4495 
Q 3363 4331 3572 4012 
Q 3781 3694 3797 3291 
L 3216 3247 
Q 3169 3681 2898 3903 
Q 2628 4125 2100 4125 
Q 1550 4125 1298 3923 
Q 1047 3722 1047 3438 
Q 1047 3191 1225 3031 
Q 1400 2872 2139 2705 
Q 2878 2538 3153 2413 
Q 3553 2228 3743 1945 
Q 3934 1663 3934 1294 
Q 3934 928 3725 604 
Q 3516 281 3123 101 
Q 2731 -78 2241 -78 
Q 1619 -78 1198 103 
Q 778 284 539 648 
Q 300 1013 288 1472 
z
" transform="scale(0.015625)"/>
       <path id="ArialMT-56" d="M 1803 0 
L 28 4581 
L 684 4581 
L 1875 1253 
Q 2019 853 2116 503 
Q 2222 878 2363 1253 
L 3600 4581 
L 4219 4581 
L 2425 0 
L 1803 0 
z
" transform="scale(0.015625)"/>
       <path id="ArialMT-44" d="M 494 0 
L 494 4581 
L 2072 4581 
Q 2606 4581 2888 4516 
Q 3281 4425 3559 4188 
Q 3922 3881 4101 3404 
Q 4281 2928 4281 2316 
Q 4281 1794 4159 1391 
Q 4038 988 3847 723 
Q 3656 459 3429 307 
Q 3203 156 2883 78 
Q 2563 0 2147 0 
L 494 0 
z
M 1100 541 
L 2078 541 
Q 2531 541 2789 625 
Q 3047 709 3200 863 
Q 3416 1078 3536 1442 
Q 3656 1806 3656 2325 
Q 3656 3044 3420 3430 
Q 3184 3816 2847 3947 
Q 2603 4041 2063 4041 
L 1100 4041 
L 1100 541 
z
" transform="scale(0.015625)"/>
      </defs>
      <use xlink:href="#ArialMT-53"/>
      <use xlink:href="#ArialMT-56" transform="translate(66.699219 0)"/>
      <use xlink:href="#ArialMT-44" transform="translate(133.398438 0)"/>
     </g>
    </g>
    <g id="patch_31">
     <path d="M 54.83 41.103125 
L 74.83 41.103125 
L 74.83 34.103125 
L 54.83 34.103125 
z
" style="fill: #00ff00; stroke: #000000; stroke-width: 0.2; stroke-linejoin: miter"/>
    </g>
    <g id="text_22">
     <!-- Linear method -->
     <g transform="translate(82.83 41.103125) scale(0.1 -0.1)">
      <defs>
       <path id="ArialMT-4c" d="M 469 0 
L 469 4581 
L 1075 4581 
L 1075 541 
L 3331 541 
L 3331 0 
L 469 0 
z
" transform="scale(0.015625)"/>
       <path id="ArialMT-6d" d="M 422 0 
L 422 3319 
L 925 3319 
L 925 2853 
Q 1081 3097 1340 3245 
Q 1600 3394 1931 3394 
Q 2300 3394 2536 3241 
Q 2772 3088 2869 2813 
Q 3263 3394 3894 3394 
Q 4388 3394 4653 3120 
Q 4919 2847 4919 2278 
L 4919 0 
L 4359 0 
L 4359 2091 
Q 4359 2428 4304 2576 
Q 4250 2725 4106 2815 
Q 3963 2906 3769 2906 
Q 3419 2906 3187 2673 
Q 2956 2441 2956 1928 
L 2956 0 
L 2394 0 
L 2394 2156 
Q 2394 2531 2256 2718 
Q 2119 2906 1806 2906 
Q 1569 2906 1367 2781 
Q 1166 2656 1075 2415 
Q 984 2175 984 1722 
L 984 0 
L 422 0 
z
" transform="scale(0.015625)"/>
       <path id="ArialMT-68" d="M 422 0 
L 422 4581 
L 984 4581 
L 984 2938 
Q 1378 3394 1978 3394 
Q 2347 3394 2619 3248 
Q 2891 3103 3008 2847 
Q 3125 2591 3125 2103 
L 3125 0 
L 2563 0 
L 2563 2103 
Q 2563 2525 2380 2717 
Q 2197 2909 1863 2909 
Q 1613 2909 1392 2779 
Q 1172 2650 1078 2428 
Q 984 2206 984 1816 
L 984 0 
L 422 0 
z
" transform="scale(0.015625)"/>
      </defs>
      <use xlink:href="#ArialMT-4c"/>
      <use xlink:href="#ArialMT-69" transform="translate(55.615234 0)"/>
      <use xlink:href="#ArialMT-6e" transform="translate(77.832031 0)"/>
      <use xlink:href="#ArialMT-65" transform="translate(133.447266 0)"/>
      <use xlink:href="#ArialMT-61" transform="translate(189.0625 0)"/>
      <use xlink:href="#ArialMT-72" transform="translate(244.677734 0)"/>
      <use xlink:href="#ArialMT-20" transform="translate(277.978516 0)"/>
      <use xlink:href="#ArialMT-6d" transform="translate(305.761719 0)"/>
      <use xlink:href="#ArialMT-65" transform="translate(389.0625 0)"/>
      <use xlink:href="#ArialMT-74" transform="translate(444.677734 0)"/>
      <use xlink:href="#ArialMT-68" transform="translate(472.460938 0)"/>
      <use xlink:href="#ArialMT-6f" transform="translate(528.076172 0)"/>
      <use xlink:href="#ArialMT-64" transform="translate(583.691406 0)"/>
     </g>
    </g>
   </g>
  </g>
 </g>
 <defs>
  <clipPath id="pa1712abb30">
   <rect x="45.83" y="10.8" width="519.37" height="224.382568"/>
  </clipPath>
 </defs>
</svg>
